PathFileType  4	(X/Y/Z) C:\Users\antoi\Documents\MyRepositories\mobilecap\ResultsAnalysis
DataRate	CameraRate	NumFrames	NumMarkers	Units	OrigDataRate	OrigDataStartFrame	OrigNumFrames
100.0	100.0	7	51	mm	100.0	18	136
Frame#	Time	r_knee			r_shank_antsup			r_ankle			r_calc			r_5meta			r_toe			L_knee			L_shank_antsup			L_ankle			L_calc			L_5meta			L_toe			r_sh2			r_sh3			r_sh4			L_sh2			L_sh3			r_thigh1			r_thigh2			r_thigh3			r_thigh4			r_thigh5			L_thigh1			L_thigh2			L_thigh3			L_thigh4			r.ASIS			r.PSIS			L.ASIS			L.PSIS			C7			R_Shoulder			L_Shoulder			R_Sternum			L_Sternum			R_humerus			R_elbow_med			R_elbow_lat			R_forearm			R_wrist_radius			R_wrist_ulna			L_humerus			L_elbow_med			L_elbow_lat			L_forearm			L_wrist_radius			L_wrist_ulna			R_HJC			L_HJC			R_HJC_reg			L_HJC_reg			
		X1	Y1	Z1	X2	Y2	Z2	X3	Y3	Z3	X4	Y4	Z4	X5	Y5	Z5	X6	Y6	Z6	X7	Y7	Z7	X8	Y8	Z8	X9	Y9	Z9	X10	Y10	Z10	X11	Y11	Z11	X12	Y12	Z12	X13	Y13	Z13	X14	Y14	Z14	X15	Y15	Z15	X16	Y16	Z16	X17	Y17	Z17	X18	Y18	Z18	X19	Y19	Z19	X20	Y20	Z20	X21	Y21	Z21	X22	Y22	Z22	X23	Y23	Z23	X24	Y24	Z24	X25	Y25	Z25	X26	Y26	Z26	X27	Y27	Z27	X28	Y28	Z28	X29	Y29	Z29	X30	Y30	Z30	X31	Y31	Z31	X32	Y32	Z32	X33	Y33	Z33	X34	Y34	Z34	X35	Y35	Z35	X36	Y36	Z36	X37	Y37	Z37	X38	Y38	Z38	X39	Y39	Z39	X40	Y40	Z40	X41	Y41	Z41	X42	Y42	Z42	X43	Y43	Z43	X44	Y44	Z44	X45	Y45	Z45	X46	Y46	Z46	X47	Y47	Z47	X48	Y48	Z48	X49	Y49	Z49	X50	Y50	Z50	X51	Y51	Z51	

18	0.17000000	125.68625	531.21145	-75.84704	162.76651	456.74138	-73.02768	162.42587	95.54011	-114.23168	102.29603	53.92009	-157.90574	310.45404	37.09606	-94.08477	339.99097	65.79981	-154.12663	110.42724	513.69978	-373.82598	46.98600	415.34560	-381.84077	-250.82778	277.40052	-340.08510	-313.77817	326.89580	-296.85950	-226.49552	101.01188	-299.88062	-268.98943	103.14518	-357.90096	179.67840	345.14294	-75.25343	92.84056	444.66518	-42.95675	99.65501	330.19448	-53.24003	3.92354	493.37691	-391.03296	-94.84460	426.21011	-380.65168	156.29056	857.19775	-37.41255	180.64255	750.11656	-53.80029	131.95639	710.97718	-27.15249	47.42437	826.60363	-27.93957	78.34913	716.07524	-36.20251	136.95650	834.85565	-385.22672	172.92318	702.61608	-389.57227	24.06133	803.88343	-376.91734	66.98512	671.24156	-385.05452	144.86723	1049.45912	-84.36137	-55.45017	1078.74065	-160.17709	138.30821	1016.13593	-342.44965	-57.26235	1066.47083	-264.04953	-63.54446	1579.86959	-218.36843	1.22926	1526.80532	-40.35050	8.54618	1550.41376	-380.04339	89.14266	1510.03135	-184.67443	91.25120	1510.06385	-238.47197	-27.82121	1255.85812	46.79815	-77.55305	1168.72832	-21.25224	-57.51101	1173.50792	59.21738	-5.61815	1022.69752	78.10881	23.63512	909.09451	70.74118	-18.11577	914.54867	89.49474	39.61080	1295.19224	-474.95725	2.10961	1192.91215	-420.40261	29.52293	1205.50160	-484.70179	146.90997	1073.88033	-490.21615	214.30086	1003.07381	-471.93384	183.85681	984.13481	-489.89516	58.75483	970.30878	-79.17739	54.55438	941.77489	-307.74242	69.21514	967.92898	-110.61506	66.24354	947.76666	-281.20650	
19	0.18000000	129.09272	531.78007	-74.92736	165.41450	456.87972	-72.08264	162.14565	95.64394	-114.18898	102.25138	53.89277	-157.91732	310.40714	37.05056	-93.99354	339.94828	65.68770	-154.06545	137.12571	518.21575	-373.28827	74.07328	419.86488	-380.38329	-225.83130	285.60718	-339.19879	-288.16554	333.89602	-294.49835	-199.64430	107.79506	-301.77600	-243.06672	111.29836	-359.25192	181.15385	345.13692	-74.39315	95.19400	445.52393	-42.91531	100.68569	330.99220	-53.39156	31.88907	498.18259	-390.39663	-67.58249	431.90865	-380.24328	164.21666	857.26899	-35.61455	187.33142	749.84293	-52.33907	137.70074	711.47120	-26.01678	55.25036	828.43363	-27.28737	83.90156	717.13603	-35.66716	153.77479	839.12124	-383.82400	193.82292	707.88571	-388.22581	42.14398	804.43631	-376.52808	88.89059	673.51990	-384.54539	156.63030	1050.82576	-83.46691	-43.65352	1080.46789	-159.13467	150.19408	1018.22758	-341.85911	-45.39165	1067.79845	-262.82711	-50.89184	1581.77331	-217.09169	14.40735	1528.62557	-39.22834	21.29472	1552.03176	-378.93906	101.70213	1511.54298	-183.70566	103.69869	1511.50667	-237.42263	-11.76518	1257.60484	48.73787	-61.53023	1169.70383	-18.53308	-40.39778	1174.86191	61.67436	14.40030	1024.89925	79.70319	46.22243	912.41953	71.54451	4.11992	916.56369	91.19174	49.24837	1295.99406	-473.03041	10.38323	1194.72702	-417.64011	37.72507	1206.51487	-482.07899	150.73950	1071.37329	-488.59993	215.89952	998.37980	-470.86401	184.44397	980.32581	-488.33317	70.74503	971.66480	-78.43015	66.44555	943.62532	-307.05208	80.74152	970.22851	-109.60960	77.88556	949.37098	-280.26188	
20	0.19000000	132.22289	532.28755	-74.09002	167.79067	457.00602	-71.15600	161.69078	95.79865	-114.12170	102.22369	53.85319	-157.93546	310.35575	36.97803	-93.88467	339.89818	65.61114	-153.96030	163.23269	523.22804	-372.50811	100.71222	424.77490	-378.85343	-200.35112	292.24255	-337.85737	-263.14379	338.30675	-291.93271	-169.60682	114.14407	-303.56956	-213.65116	118.24175	-360.83271	182.37540	345.12865	-73.50971	97.26232	446.37387	-42.92932	101.49788	331.78583	-53.59437	58.89790	503.19004	-389.30762	-40.92905	437.22456	-379.51134	171.86514	857.26200	-33.92312	193.88366	749.57004	-51.08498	143.41062	711.89520	-25.06322	62.84862	830.22572	-26.78330	89.16148	718.14344	-35.33367	170.63185	843.69986	-382.30645	214.74408	713.60006	-386.51676	60.40220	805.60600	-376.54677	110.88144	676.37410	-384.24800	168.21808	1052.05336	-82.51409	-31.92641	1082.16311	-158.07089	162.10468	1020.58470	-341.22153	-33.50739	1069.26878	-261.62473	-38.35691	1583.64022	-215.88847	27.51949	1530.45825	-38.18524	33.93629	1553.62195	-377.91202	114.17594	1513.04198	-182.82061	116.05152	1512.94331	-236.46780	4.38161	1259.41551	50.64942	-45.40351	1170.67354	-15.77796	-23.17365	1176.30779	64.14592	34.61132	1027.25685	81.22192	68.98241	915.86294	72.28144	26.61845	918.79518	92.81493	58.88528	1296.85066	-471.22336	18.54953	1196.60930	-415.14417	45.95337	1207.62746	-479.66841	154.40110	1069.03140	-486.98498	217.21021	993.83971	-469.72411	184.95154	976.64098	-486.77380	82.59328	972.86967	-77.77726	78.34916	945.68725	-306.50139	92.13216	972.41843	-108.73602	89.52972	951.15880	-279.45730	
21	0.20000000	135.22855	532.75315	-73.34344	170.00587	457.12580	-70.25370	161.12392	95.97513	-114.05381	102.21874	53.81185	-157.95398	310.30265	36.88165	-93.74813	339.84253	65.56706	-153.80708	188.72483	528.54735	-371.48668	126.85471	429.95121	-377.29977	-174.25599	297.10420	-336.16550	-238.43288	340.25393	-289.37585	-137.08485	119.69109	-305.13612	-181.44997	123.72865	-362.48220	183.43931	345.12415	-72.61984	99.15140	447.23938	-42.98926	102.18487	332.58981	-53.85523	84.87508	508.24728	-387.82727	-14.89799	441.97606	-378.40917	179.49314	857.25618	-32.41017	200.52887	749.36143	-50.07443	149.28015	712.30071	-24.28774	70.42921	831.97347	-26.33324	94.48320	719.19702	-35.12684	187.30978	848.43850	-380.76427	235.50151	719.63515	-384.59787	78.61655	807.28154	-376.79075	132.74422	679.67033	-384.13516	179.60150	1053.18879	-81.42287	-20.29223	1083.80524	-157.04589	174.05646	1023.13079	-340.42616	-21.62813	1070.84685	-260.52890	-25.93265	1585.44059	-214.74719	40.54768	1532.27684	-37.21879	46.42878	1555.18060	-376.95541	126.56136	1514.51862	-182.00569	128.31132	1514.36926	-235.59953	20.60309	1261.26875	52.52726	-29.16401	1171.61804	-13.00148	-5.84072	1177.82212	66.62132	54.97899	1029.75926	82.66309	91.77075	919.35660	72.97308	49.30668	921.23114	94.34807	68.48787	1297.76010	-469.53471	26.59996	1198.55016	-412.92921	54.21837	1208.81633	-477.47644	157.94614	1066.88542	-485.37397	218.27696	989.50176	-468.51510	185.42262	973.15022	-485.22905	94.23129	973.96867	-77.16065	90.30083	947.89334	-306.01805	103.39063	974.48108	-107.89838	101.18847	953.09607	-278.68703	
22	0.21000000	138.28021	533.20236	-72.69347	172.19933	457.24341	-69.39674	160.53038	96.14291	-113.99837	102.23923	53.78167	-157.96475	310.25099	36.76500	-93.57803	339.78930	65.54627	-153.60455	213.58609	533.99633	-370.23880	152.52045	435.20005	-375.74396	-147.48515	300.06054	-334.28806	-213.67714	339.89689	-286.97794	-102.85867	124.09174	-306.40806	-147.28967	127.59634	-364.04168	184.47502	345.13155	-71.74585	100.99598	448.14273	-43.08042	102.86703	333.42148	-54.16616	109.84413	513.13770	-386.05125	10.57384	445.94967	-376.95671	187.27526	857.30237	-31.11559	207.39120	749.23911	-49.30447	155.40905	712.72084	-23.64487	78.12069	833.64529	-25.85767	100.14292	720.34230	-34.94887	203.60255	853.20284	-379.25656	255.88244	725.86029	-382.61596	96.58097	809.31519	-377.09026	154.25694	683.25796	-384.16431	190.76167	1054.26069	-80.13422	-8.77536	1085.36590	-156.12442	186.06276	1025.76679	-339.39903	-9.77270	1072.47934	-259.61374	-13.59999	1587.14725	-213.65532	53.48431	1534.05176	-36.32598	58.75080	1556.69974	-376.06194	138.85281	1515.95783	-181.24734	140.48005	1515.77316	-234.80704	36.87923	1263.14453	54.36732	-12.82361	1172.52845	-10.21688	11.58589	1179.37604	69.08895	75.46809	1032.38958	84.02642	114.51947	922.89374	73.61193	72.13112	923.85410	95.78023	78.02057	1298.71114	-467.95841	34.52080	1200.53122	-410.99686	62.51423	1210.05331	-475.49682	161.42452	1064.95885	-483.76998	219.14352	985.41469	-467.23696	185.87715	969.92682	-483.70528	105.60441	974.99166	-76.53629	102.32585	950.15843	-305.54148	114.51564	976.39311	-107.01708	112.86972	955.12089	-277.86913	
23	0.22000000	141.54511	533.65915	-72.14871	174.52705	457.35992	-68.62167	159.99549	96.28049	-113.95892	102.28343	53.77381	-157.96219	310.20480	36.63315	-93.37673	339.75003	65.53250	-153.36019	237.79430	539.42684	-368.78651	177.77439	440.29808	-374.18925	-120.04572	301.05366	-332.40140	-188.54787	337.39561	-284.81418	-67.61942	127.08898	-307.37562	-111.92529	129.76907	-365.39158	185.63152	345.15651	-70.92087	102.94730	449.09957	-43.18268	103.68661	334.29466	-54.50404	133.90976	517.62720	-384.09013	35.59548	448.95286	-375.23178	195.26867	857.41334	-30.03625	214.47581	749.19239	-48.74557	161.80305	713.16787	-23.09380	85.95094	835.19948	-25.32324	106.27382	721.55544	-34.73674	219.41119	857.91653	-377.78813	275.71213	732.14901	-380.68691	114.15743	811.55543	-377.33518	175.25789	686.99321	-384.29528	201.68857	1055.26903	-78.61687	2.60517	1086.81312	-155.36263	198.13532	1028.39071	-338.10807	2.04650	1074.10374	-258.92949	-1.33507	1588.73713	-212.60161	66.32851	1535.75290	-35.50261	70.90545	1558.16551	-375.22397	151.04816	1517.34047	-180.53337	152.56812	1517.13917	-234.07754	53.18815	1265.02508	56.16697	3.58847	1173.40468	-7.43539	29.07664	1180.93766	71.53693	96.04526	1035.12811	85.31323	137.20973	926.50192	74.18085	95.06076	926.64094	97.10036	87.46334	1299.67997	-466.48375	42.29411	1202.52662	-409.33524	70.81812	1211.30926	-473.71268	164.87972	1063.26431	-482.17629	219.86068	981.61954	-465.89113	186.33253	967.02857	-482.20770	116.67785	975.94323	-75.88078	114.43845	952.39554	-305.03270	125.49927	978.12882	-106.04067	124.57567	957.15616	-276.95498	
24	0.23000000	145.15461	534.13568	-71.72345	177.13064	457.47153	-67.97103	159.58102	96.38133	-113.93588	102.34489	53.79415	-157.94655	310.16782	36.49350	-93.15543	339.73575	65.50666	-153.09180	261.31392	544.72739	-367.15313	202.69272	445.04238	-372.63380	-91.98433	300.09860	-330.64940	-162.80669	332.89158	-282.90046	-31.85461	128.55322	-308.06621	-75.89529	130.25446	-366.46768	187.04545	345.19723	-70.18763	105.14318	450.11391	-43.28008	104.77988	335.21262	-54.84392	157.21722	521.51572	-382.04964	60.28595	450.85813	-373.34454	203.43571	857.56584	-29.14010	221.70382	749.19227	-48.36297	168.40355	713.63549	-22.63000	93.87605	836.59992	-24.75441	112.86591	722.76161	-34.49170	234.79029	862.57307	-376.31541	294.89497	738.38446	-378.88714	131.29828	813.87309	-377.49110	195.67435	690.75853	-384.49211	212.37931	1056.18338	-76.87231	13.84080	1088.11587	-154.79780	210.28219	1030.91337	-336.56268	13.82522	1075.65826	-258.49698	10.88128	1590.19414	-211.57840	79.08144	1537.35260	-34.74288	82.91757	1559.55790	-374.43354	163.15578	1518.64438	-179.85376	164.59850	1518.44752	-233.39749	69.50677	1266.89425	57.92438	20.03900	1174.24765	-4.66772	46.59404	1182.47637	73.95345	116.67864	1037.95487	86.52653	159.84230	930.21485	74.67010	118.08547	929.56485	98.29241	96.82220	1300.62994	-465.09770	49.90082	1204.51076	-407.92002	79.09368	1212.55543	-472.10062	168.34422	1061.80072	-480.59640	220.48846	978.14259	-464.48007	186.81500	964.48646	-480.74120	127.43962	976.80098	-75.19413	126.63957	954.52909	-304.47927	136.32898	979.66394	-104.95218	136.29976	959.12349	-275.93219	
